<svg width="64" height="55" viewBox="0 0 64 55" fill="none" xmlns="http://www.w3.org/2000/svg">
<path opacity="0.3" fill-rule="evenodd" clip-rule="evenodd" d="M41.9333 8.50233C48.3083 8.45459 55.0281 9.31142 59.2198 14.0425C63.6034 18.9901 64.6043 25.9819 63.0851 32.3758C61.5768 38.7245 57.3154 44.0555 51.3957 46.9738C45.3573 49.9505 38.2606 50.4604 32.1528 47.6245C25.9849 44.7608 21.6395 39.0711 20.2241 32.5011C18.8351 26.0538 20.5219 19.2199 24.9733 14.299C29.1615 9.66911 35.6377 8.54947 41.9333 8.50233Z" fill="#81E1DA"/>
<path fill-rule="evenodd" clip-rule="evenodd" d="M14.3128 8.05506H12.3937C12.6824 5.91807 13.8639 5.8106 14.4078 5.76113L14.4079 5.76112C14.9511 5.71165 15.367 5.25624 15.367 4.71076V1.5546C15.367 1.26467 15.2476 0.987392 15.0369 0.788162C14.8262 0.588931 14.5425 0.485677 14.2532 0.501603C10.9193 0.689127 6.94522 2.37241 6.94522 9.32681V14.8154C6.94522 15.7316 7.69057 16.477 8.60678 16.477H14.313C15.2292 16.477 15.9745 15.7315 15.9744 14.8153V9.71662C15.9744 8.80041 15.2291 8.05506 14.3128 8.05506ZM13.8651 14.3675H9.0546V9.32681C9.0546 4.47419 11.2126 3.11892 13.2576 2.73638V3.84528C11.8453 4.27517 10.2198 5.5448 10.2198 9.10975C10.2198 9.69226 10.692 10.1644 11.2745 10.1644H13.8651V14.3675ZM25.0956 8.05506H23.1764C23.4651 5.91807 24.6466 5.8106 25.1904 5.76113L25.1905 5.76112C25.7338 5.71165 26.1497 5.25624 26.1497 4.71076V1.5546C26.1497 1.26467 26.0303 0.987392 25.8196 0.788162C25.6088 0.588931 25.3249 0.485677 25.0358 0.501603C21.702 0.689127 17.7279 2.37241 17.7279 9.32681V14.8154C17.7279 15.7316 18.4732 16.477 19.3894 16.477H25.0956C26.0118 16.477 26.7573 15.7315 26.7572 14.8152V9.71662C26.7572 8.80041 26.0118 8.05506 25.0956 8.05506ZM24.6478 14.3676H19.8373V9.32681C19.8373 4.47419 21.9953 3.11892 24.0403 2.73638V3.84528C22.628 4.27517 21.0025 5.5448 21.0025 9.10975C21.0025 9.69226 21.4747 10.1644 22.0572 10.1644H24.6478V14.3676ZM30.5703 8.71186C30.8477 8.71186 31.1198 8.82472 31.316 9.02089C31.5121 9.21706 31.625 9.48917 31.625 9.76655C31.625 10.0439 31.5121 10.316 31.316 10.5122C31.1198 10.7084 30.8477 10.8212 30.5703 10.8212C30.2929 10.8212 30.0208 10.7084 29.8246 10.5122C29.6285 10.316 29.5156 10.0439 29.5156 9.76655C29.5156 9.48917 29.6285 9.21706 29.8246 9.02089C30.0208 8.82472 30.2929 8.71186 30.5703 8.71186ZM36.5047 8.71177H35.1757C34.5932 8.71177 34.121 9.18396 34.121 9.76646C34.121 10.349 34.5932 10.8211 35.1757 10.8211H36.5047C45.6778 10.8211 53.1406 18.284 53.1406 27.4571C53.1406 35.2862 47.5879 42.1332 39.9373 43.7377C39.4489 43.8402 39.0991 44.271 39.0991 44.77V50.8981L32.6029 44.4019C32.4052 44.2041 32.1368 44.0929 31.8571 44.0929H19.9953C10.8222 44.0929 3.35938 36.6301 3.35938 27.4571C3.35938 24.63 4.0811 21.8383 5.4466 19.3836C5.72989 18.8746 5.54669 18.2324 5.0377 17.9493C4.5286 17.666 3.8864 17.8492 3.60332 18.3582C2.06369 21.1256 1.25 24.2719 1.25 27.4571C1.25 37.7933 9.65902 46.2023 19.9953 46.2023H31.4203L39.4081 54.1901C39.6098 54.3919 39.8795 54.499 40.154 54.499C40.2899 54.499 40.427 54.4728 40.5575 54.4187C40.9515 54.2555 41.2085 53.871 41.2085 53.4443V45.6058C45.0247 44.6169 48.4753 42.4165 50.9968 39.347C53.7395 36.0081 55.25 31.7856 55.25 27.4571C55.25 17.1209 46.841 8.71188 36.5047 8.71177ZM15.2708 19.2194H41.2295C41.8121 19.2194 42.2842 19.6915 42.2842 20.2741C42.2842 20.8566 41.8119 21.3287 41.2294 21.3287H15.2708C14.6883 21.3287 14.2162 20.8566 14.2162 20.2741C14.2162 19.6915 14.6883 19.2194 15.2708 19.2194ZM41.2295 24.8444H15.2708C14.6883 24.8444 14.2162 25.3165 14.2162 25.899C14.2162 26.4815 14.6883 26.9537 15.2708 26.9537H41.2294C41.8119 26.9537 42.2842 26.4815 42.2842 25.899C42.2842 25.3165 41.8121 24.8444 41.2295 24.8444ZM15.2708 30.4693H41.2295C41.8121 30.4693 42.2842 30.9416 42.2842 31.524C42.2842 32.1064 41.8119 32.5787 41.2294 32.5787H15.2708C14.6883 32.5787 14.2162 32.1064 14.2162 31.524C14.2162 30.9416 14.6883 30.4693 15.2708 30.4693ZM41.2295 36.0944H27.3929C26.8104 36.0944 26.3382 36.5667 26.3382 37.1491C26.3382 37.7315 26.8104 38.2037 27.3929 38.2037H41.2295C41.812 38.2037 42.2842 37.7315 42.2842 37.1491C42.2842 36.5667 41.812 36.0944 41.2295 36.0944ZM21.4416 36.0942H21.4585C22.041 36.0942 22.5132 36.5665 22.5132 37.1489C22.5132 37.7313 22.041 38.2036 21.4585 38.2036H21.4416C20.8591 38.2036 20.3869 37.7313 20.3869 37.1489C20.3869 36.5665 20.8591 36.0942 21.4416 36.0942Z" fill="#223C50"/>
<path d="M12.3937 8.05506L11.8982 7.98814L11.8217 8.55506H12.3937V8.05506ZM14.4078 5.76113L14.4531 6.25907L14.4545 6.25894L14.4078 5.76113ZM14.4079 5.76112L14.3625 5.26318L14.3612 5.2633L14.4079 5.76112ZM15.0369 0.788162L15.3804 0.424837L15.3804 0.424837L15.0369 0.788162ZM14.2532 0.501603L14.2257 0.00235862L14.2251 0.00239217L14.2532 0.501603ZM15.9744 14.8153H15.4744V14.8154L15.9744 14.8153ZM9.0546 14.3675H8.5546V14.8675H9.0546V14.3675ZM13.8651 14.3675V14.8675H14.3651V14.3675H13.8651ZM13.2576 2.73638H13.7576V2.13418L13.1657 2.2449L13.2576 2.73638ZM13.2576 3.84528L13.4032 4.32361L13.7576 4.21574V3.84528H13.2576ZM13.8651 10.1644H14.3651V9.66444H13.8651V10.1644ZM23.1764 8.05506L22.6809 7.98814L22.6043 8.55506H23.1764V8.05506ZM25.1904 5.76113L25.2357 6.25907L25.2371 6.25894L25.1904 5.76113ZM25.1905 5.76112L25.1452 5.26318L25.1439 5.2633L25.1905 5.76112ZM25.8196 0.788162L26.1631 0.424837L26.1631 0.424836L25.8196 0.788162ZM25.0358 0.501603L25.0083 0.00235975L25.0077 0.00239217L25.0358 0.501603ZM26.7572 14.8152H26.2572V14.8152L26.7572 14.8152ZM19.8373 14.3676H19.3373V14.8676H19.8373V14.3676ZM24.6478 14.3676V14.8676H25.1478V14.3676H24.6478ZM24.0403 2.73638H24.5403V2.13418L23.9484 2.2449L24.0403 2.73638ZM24.0403 3.84528L24.1859 4.32361L24.5403 4.21574V3.84528H24.0403ZM24.6478 10.1644H25.1478V9.66444H24.6478V10.1644ZM31.316 9.02089L30.9624 9.37444L30.9624 9.37444L31.316 9.02089ZM31.316 10.5122L30.9624 10.1587L30.9624 10.1587L31.316 10.5122ZM29.8246 10.5122L30.1782 10.1587L30.1782 10.1587L29.8246 10.5122ZM29.8246 9.02089L30.1782 9.37444L30.1782 9.37444L29.8246 9.02089ZM36.5047 8.71177L36.5047 8.21177H36.5047V8.71177ZM39.9373 43.7377L39.8347 43.2484L39.8346 43.2484L39.9373 43.7377ZM39.0991 50.8981L38.7456 51.2517L39.5991 52.1052V50.8981H39.0991ZM32.6029 44.4019L32.2494 44.7554L32.6029 44.4019ZM5.4466 19.3836L5.00971 19.1405L5.00966 19.1406L5.4466 19.3836ZM5.0377 17.9493L4.79458 18.3862L4.79461 18.3862L5.0377 17.9493ZM3.60332 18.3582L4.04026 18.6012L4.04029 18.6012L3.60332 18.3582ZM31.4203 46.2023L31.7738 45.8488L31.6274 45.7023H31.4203V46.2023ZM39.4081 54.1901L39.7616 53.8366L39.7616 53.8366L39.4081 54.1901ZM40.5575 54.4187L40.3662 53.9567L40.3659 53.9568L40.5575 54.4187ZM41.2085 45.6058L41.0831 45.1218L40.7085 45.2188V45.6058H41.2085ZM50.9968 39.347L50.6104 39.0296L50.6104 39.0296L50.9968 39.347ZM12.3937 8.55506H14.3128V7.55506H12.3937V8.55506ZM14.3625 5.26318C14.0889 5.28807 13.5276 5.33262 13.0047 5.72556C12.4681 6.12876 12.0547 6.82983 11.8982 7.98814L12.8892 8.12199C13.0214 7.14331 13.3431 6.72214 13.6054 6.52499C13.8815 6.31758 14.1828 6.28366 14.4531 6.25907L14.3625 5.26318ZM14.3612 5.2633L14.3611 5.26331L14.4545 6.25894L14.4545 6.25894L14.3612 5.2633ZM14.867 4.71076C14.867 4.99764 14.6483 5.23716 14.3625 5.26318L14.4532 6.25906C15.254 6.18615 15.867 5.51484 15.867 4.71076H14.867ZM14.867 1.5546V4.71076H15.867V1.5546H14.867ZM14.6934 1.15149C14.8042 1.25625 14.867 1.40211 14.867 1.5546H15.867C15.867 1.12723 15.691 0.718534 15.3804 0.424837L14.6934 1.15149ZM14.2806 1.00085C14.4336 0.992426 14.583 1.0471 14.6934 1.15149L15.3804 0.424837C15.0694 0.130767 14.6513 -0.0210709 14.2257 0.00235897L14.2806 1.00085ZM7.44522 9.32681C7.44522 5.94712 8.40776 3.93662 9.68978 2.7425C10.9826 1.53833 12.6782 1.09098 14.2812 1.00081L14.2251 0.00239217C12.4942 0.0997477 10.5359 0.5878 9.0082 2.01075C7.46972 3.44376 6.44522 5.7521 6.44522 9.32681H7.44522ZM7.44522 14.8154V9.32681H6.44522V14.8154H7.44522ZM8.60678 15.977C7.96671 15.977 7.44522 15.4555 7.44522 14.8154H6.44522C6.44522 16.0077 7.41443 16.977 8.60678 16.977V15.977ZM14.313 15.977H8.60678V16.977H14.313V15.977ZM15.4744 14.8154C15.4745 15.4554 14.953 15.977 14.313 15.977V16.977C15.5053 16.977 16.4745 16.0076 16.4744 14.8152L15.4744 14.8154ZM15.4744 9.71662V14.8153H16.4744V9.71662H15.4744ZM14.3128 8.55506C14.9529 8.55506 15.4744 9.07655 15.4744 9.71662H16.4744C16.4744 8.52427 15.5052 7.55506 14.3128 7.55506V8.55506ZM9.0546 14.8675H13.8651V13.8675H9.0546V14.8675ZM8.5546 9.32681V14.3675H9.5546V9.32681H8.5546ZM13.1657 2.2449C12.0689 2.45006 10.8925 2.92663 9.9989 4.04283C9.10938 5.15395 8.5546 6.83107 8.5546 9.32681H9.5546C9.5546 6.96993 10.0788 5.5431 10.7796 4.66779C11.4762 3.79757 12.4013 3.40524 13.3496 3.22786L13.1657 2.2449ZM13.7576 3.84528V2.73638H12.7576V3.84528H13.7576ZM10.7198 9.10975C10.7198 7.4028 11.1084 6.30367 11.6161 5.59233C12.1222 4.88322 12.7793 4.51352 13.4032 4.32361L13.112 3.36695C12.3236 3.60693 11.4619 4.08699 10.8021 5.01141C10.144 5.9336 9.71982 7.25176 9.71982 9.10975H10.7198ZM11.2745 9.66444C10.9681 9.66444 10.7198 9.41611 10.7198 9.10975H9.71982C9.71982 9.9684 10.4159 10.6644 11.2745 10.6644V9.66444ZM13.8651 9.66444H11.2745V10.6644H13.8651V9.66444ZM14.3651 14.3675V10.1644H13.3651V14.3675H14.3651ZM23.1764 8.55506H25.0956V7.55506H23.1764V8.55506ZM25.1452 5.26318C24.8716 5.28807 24.3102 5.33262 23.7874 5.72556C23.2508 6.12876 22.8374 6.82982 22.6809 7.98814L23.6719 8.12199C23.8041 7.14331 24.1258 6.72214 24.3881 6.52499C24.6641 6.31758 24.9654 6.28366 25.2357 6.25907L25.1452 5.26318ZM25.1439 5.2633L25.1438 5.26331L25.2371 6.25894L25.2372 6.25894L25.1439 5.2633ZM25.6497 4.71076C25.6497 4.99764 25.431 5.23716 25.1452 5.26318L25.2359 6.25906C26.0366 6.18615 26.6497 5.51484 26.6497 4.71076H25.6497ZM25.6497 1.5546V4.71076H26.6497V1.5546H25.6497ZM25.4761 1.15149C25.5869 1.25625 25.6497 1.40211 25.6497 1.5546H26.6497C26.6497 1.12723 26.4737 0.718535 26.1631 0.424837L25.4761 1.15149ZM25.0633 1.00085C25.2161 0.992429 25.3657 1.04712 25.4761 1.15149L26.1631 0.424836C25.852 0.130741 25.4337 -0.0210739 25.0083 0.00236008L25.0633 1.00085ZM18.2279 9.32681C18.2279 5.94712 19.1904 3.93662 20.4724 2.7425C21.7652 1.53833 23.4609 1.09098 25.0639 1.00081L25.0077 0.00239217C23.2769 0.0997477 21.3186 0.5878 19.7909 2.01075C18.2524 3.44376 17.2279 5.75209 17.2279 9.32681H18.2279ZM18.2279 14.8154V9.32681H17.2279V14.8154H18.2279ZM19.3894 15.977C18.7494 15.977 18.2279 15.4555 18.2279 14.8154H17.2279C17.2279 16.0077 18.1971 16.977 19.3894 16.977V15.977ZM25.0956 15.977H19.3894V16.977H25.0956V15.977ZM26.2572 14.8152C26.2572 15.4554 25.7357 15.977 25.0956 15.977V16.977C26.288 16.977 27.2573 16.0076 27.2572 14.8151L26.2572 14.8152ZM26.2572 9.71662V14.8152H27.2572V9.71662H26.2572ZM25.0956 8.55506C25.7357 8.55506 26.2572 9.07655 26.2572 9.71662H27.2572C27.2572 8.52427 26.288 7.55506 25.0956 7.55506V8.55506ZM19.8373 14.8676H24.6478V13.8676H19.8373V14.8676ZM19.3373 9.32681V14.3676H20.3373V9.32681H19.3373ZM23.9484 2.2449C22.8516 2.45006 21.6752 2.92663 20.7816 4.04283C19.892 5.15395 19.3373 6.83107 19.3373 9.32681H20.3373C20.3373 6.96993 20.8615 5.5431 21.5622 4.66779C22.2589 3.79757 23.184 3.40524 24.1322 3.22786L23.9484 2.2449ZM24.5403 3.84528V2.73638H23.5403V3.84528H24.5403ZM21.5025 9.10975C21.5025 7.4028 21.8911 6.30367 22.3987 5.59233C22.9048 4.88322 23.562 4.51352 24.1859 4.32361L23.8947 3.36695C23.1063 3.60693 22.2445 4.08699 21.5848 5.01141C20.9266 5.9336 20.5025 7.25176 20.5025 9.10975H21.5025ZM22.0572 9.66444C21.7508 9.66444 21.5025 9.41611 21.5025 9.10975H20.5025C20.5025 9.9684 21.1985 10.6644 22.0572 10.6644V9.66444ZM24.6478 9.66444H22.0572V10.6644H24.6478V9.66444ZM25.1478 14.3676V10.1644H24.1478V14.3676H25.1478ZM31.6695 8.66734C31.3797 8.37752 30.9805 8.21186 30.5703 8.21186V9.21186C30.7149 9.21186 30.8599 9.27191 30.9624 9.37444L31.6695 8.66734ZM32.125 9.76655C32.125 9.35638 31.9593 8.95715 31.6695 8.66733L30.9624 9.37444C31.065 9.47697 31.125 9.62196 31.125 9.76655H32.125ZM31.6695 10.8658C31.9593 10.576 32.125 10.1767 32.125 9.76655H31.125C31.125 9.91115 31.065 10.0561 30.9624 10.1587L31.6695 10.8658ZM30.5703 11.3212C30.9805 11.3212 31.3797 11.1556 31.6695 10.8658L30.9624 10.1587C30.8599 10.2612 30.7149 10.3212 30.5703 10.3212V11.3212ZM29.4711 10.8658C29.7609 11.1556 30.1601 11.3212 30.5703 11.3212V10.3212C30.4257 10.3212 30.2807 10.2612 30.1782 10.1587L29.4711 10.8658ZM29.0156 9.76655C29.0156 10.1767 29.1813 10.576 29.4711 10.8658L30.1782 10.1587C30.0757 10.0561 30.0156 9.91115 30.0156 9.76655H29.0156ZM29.4711 8.66733C29.1813 8.95715 29.0156 9.35638 29.0156 9.76655H30.0156C30.0156 9.62196 30.0757 9.47697 30.1782 9.37444L29.4711 8.66733ZM30.5703 8.21186C30.1601 8.21186 29.7609 8.37752 29.4711 8.66734L30.1782 9.37444C30.2807 9.27191 30.4257 9.21186 30.5703 9.21186V8.21186ZM35.1757 9.21177H36.5047V8.21177H35.1757V9.21177ZM34.621 9.76646C34.621 9.4601 34.8693 9.21177 35.1757 9.21177V8.21177C34.3171 8.21177 33.621 8.90782 33.621 9.76646H34.621ZM35.1757 10.3211C34.8693 10.3211 34.621 10.0728 34.621 9.76646H33.621C33.621 10.6251 34.3171 11.3211 35.1757 11.3211V10.3211ZM36.5047 10.3211H35.1757V11.3211H36.5047V10.3211ZM53.6406 27.4571C53.6406 18.0079 45.9539 10.3211 36.5047 10.3211V11.3211C45.4016 11.3211 52.6406 18.5602 52.6406 27.4571H53.6406ZM40.0399 44.2271C47.9226 42.5739 53.6406 35.5222 53.6406 27.4571H52.6406C52.6406 35.0502 47.2532 41.6926 39.8347 43.2484L40.0399 44.2271ZM39.5991 44.77C39.5991 44.5076 39.7831 44.281 40.04 44.2271L39.8346 43.2484C39.1147 43.3995 38.5991 44.0344 38.5991 44.77H39.5991ZM39.5991 50.8981V44.77H38.5991V50.8981H39.5991ZM32.2494 44.7554L38.7456 51.2517L39.4527 50.5446L32.9565 44.0483L32.2494 44.7554ZM31.8571 44.5929C32.0042 44.5929 32.1453 44.6514 32.2494 44.7554L32.9565 44.0483C32.665 43.7568 32.2695 43.5929 31.8571 43.5929V44.5929ZM19.9953 44.5929H31.8571V43.5929H19.9953V44.5929ZM2.85938 27.4571C2.85938 36.9062 10.5461 44.5929 19.9953 44.5929V43.5929C11.0984 43.5929 3.85938 36.3539 3.85938 27.4571H2.85938ZM5.00966 19.1406C3.60252 21.6701 2.85938 24.5455 2.85938 27.4571H3.85938C3.85938 24.7145 4.55967 22.0065 5.88354 19.6267L5.00966 19.1406ZM4.79461 18.3862C5.0624 18.5352 5.15862 18.8729 5.00971 19.1405L5.88349 19.6268C6.30116 18.8763 6.03099 17.9297 5.28079 17.5123L4.79461 18.3862ZM4.04029 18.6012C4.18915 18.3335 4.52685 18.2372 4.79458 18.3862L5.28082 17.5123C4.53036 17.0947 3.58366 17.3648 3.16636 18.1151L4.04029 18.6012ZM1.75 27.4571C1.75 24.3564 2.54224 21.2938 4.04026 18.6012L3.16639 18.1151C1.58514 20.9573 0.75 24.1873 0.75 27.4571H1.75ZM19.9953 45.7023C9.93517 45.7023 1.75 37.5172 1.75 27.4571H0.75C0.75 38.0694 9.38288 46.7023 19.9953 46.7023V45.7023ZM31.4203 45.7023H19.9953V46.7023H31.4203V45.7023ZM39.7616 53.8366L31.7738 45.8488L31.0667 46.5559L39.0545 54.5437L39.7616 53.8366ZM40.154 53.999C40.0093 53.999 39.8676 53.9426 39.7616 53.8366L39.0545 54.5437C39.352 54.8412 39.7497 54.999 40.154 54.999V53.999ZM40.3659 53.9568C40.2973 53.9853 40.2254 53.999 40.154 53.999V54.999C40.3544 54.999 40.5567 54.9603 40.749 54.8805L40.3659 53.9568ZM40.7085 53.4443C40.7085 53.6687 40.5733 53.8709 40.3662 53.9567L40.7488 54.8806C41.3296 54.6401 41.7085 54.0732 41.7085 53.4443H40.7085ZM40.7085 45.6058V53.4443H41.7085V45.6058H40.7085ZM50.6104 39.0296C48.156 42.0175 44.7967 44.1595 41.0831 45.1218L41.3339 46.0898C45.2527 45.0743 48.7946 42.8155 51.3831 39.6643L50.6104 39.0296ZM54.75 27.4571C54.75 31.6701 53.2795 35.7804 50.6104 39.0296L51.3831 39.6643C54.1994 36.2359 55.75 31.9011 55.75 27.4571H54.75ZM36.5047 9.21177C46.5648 9.21188 54.75 17.397 54.75 27.4571H55.75C55.75 16.8448 47.1171 8.21188 36.5047 8.21177L36.5047 9.21177ZM41.2295 18.7194H15.2708V19.7194H41.2295V18.7194ZM42.7842 20.2741C42.7842 19.4154 42.0882 18.7194 41.2295 18.7194V19.7194C41.5359 19.7194 41.7842 19.9677 41.7842 20.2741H42.7842ZM41.2294 21.8287C42.088 21.8287 42.7842 21.1328 42.7842 20.2741H41.7842C41.7842 20.5803 41.5359 20.8287 41.2294 20.8287V21.8287ZM15.2708 21.8287H41.2294V20.8287H15.2708V21.8287ZM13.7162 20.2741C13.7162 21.1327 14.4122 21.8287 15.2708 21.8287V20.8287C14.9645 20.8287 14.7162 20.5804 14.7162 20.2741H13.7162ZM15.2708 18.7194C14.4122 18.7194 13.7162 19.4154 13.7162 20.2741H14.7162C14.7162 19.9677 14.9645 19.7194 15.2708 19.7194V18.7194ZM15.2708 25.3444H41.2295V24.3444H15.2708V25.3444ZM14.7162 25.899C14.7162 25.5927 14.9645 25.3444 15.2708 25.3444V24.3444C14.4122 24.3444 13.7162 25.0404 13.7162 25.899H14.7162ZM15.2708 26.4537C14.9645 26.4537 14.7162 26.2054 14.7162 25.899H13.7162C13.7162 26.7577 14.4122 27.4537 15.2708 27.4537V26.4537ZM41.2294 26.4537H15.2708V27.4537H41.2294V26.4537ZM41.7842 25.899C41.7842 26.2053 41.5359 26.4537 41.2294 26.4537V27.4537C42.088 27.4537 42.7842 26.7578 42.7842 25.899H41.7842ZM41.2295 25.3444C41.5359 25.3444 41.7842 25.5927 41.7842 25.899H42.7842C42.7842 25.0404 42.0882 24.3444 41.2295 24.3444V25.3444ZM41.2295 29.9693H15.2708V30.9693H41.2295V29.9693ZM42.7842 31.524C42.7842 30.6655 42.0882 29.9693 41.2295 29.9693V30.9693C41.5359 30.9693 41.7842 31.2177 41.7842 31.524H42.7842ZM41.2294 33.0787C42.0881 33.0787 42.7842 32.3826 42.7842 31.524H41.7842C41.7842 31.8302 41.5358 32.0787 41.2294 32.0787V33.0787ZM15.2708 33.0787H41.2294V32.0787H15.2708V33.0787ZM13.7162 31.524C13.7162 32.3825 14.4122 33.0787 15.2708 33.0787V32.0787C14.9645 32.0787 14.7162 31.8303 14.7162 31.524H13.7162ZM15.2708 29.9693C14.4122 29.9693 13.7162 30.6655 13.7162 31.524H14.7162C14.7162 31.2177 14.9645 30.9693 15.2708 30.9693V29.9693ZM27.3929 36.5944H41.2295V35.5944H27.3929V36.5944ZM26.8382 37.1491C26.8382 36.8428 27.0866 36.5944 27.3929 36.5944V35.5944C26.5342 35.5944 25.8382 36.2906 25.8382 37.1491H26.8382ZM27.3929 37.7037C27.0866 37.7037 26.8382 37.4553 26.8382 37.1491H25.8382C25.8382 38.0076 26.5342 38.7037 27.3929 38.7037V37.7037ZM41.2295 37.7037H27.3929V38.7037H41.2295V37.7037ZM41.7842 37.1491C41.7842 37.4553 41.5359 37.7037 41.2295 37.7037V38.7037C42.0882 38.7037 42.7842 38.0076 42.7842 37.1491H41.7842ZM41.2295 36.5944C41.5359 36.5944 41.7842 36.8428 41.7842 37.1491H42.7842C42.7842 36.2905 42.0882 35.5944 41.2295 35.5944V36.5944ZM21.4585 35.5942H21.4416V36.5942H21.4585V35.5942ZM23.0132 37.1489C23.0132 36.2904 22.3172 35.5942 21.4585 35.5942V36.5942C21.7649 36.5942 22.0132 36.8426 22.0132 37.1489H23.0132ZM21.4585 38.7036C22.3172 38.7036 23.0132 38.0074 23.0132 37.1489H22.0132C22.0132 37.4552 21.7649 37.7036 21.4585 37.7036V38.7036ZM21.4416 38.7036H21.4585V37.7036H21.4416V38.7036ZM19.8869 37.1489C19.8869 38.0074 20.5829 38.7036 21.4416 38.7036V37.7036C21.1352 37.7036 20.8869 37.4552 20.8869 37.1489H19.8869ZM21.4416 35.5942C20.5829 35.5942 19.8869 36.2904 19.8869 37.1489H20.8869C20.8869 36.8426 21.1352 36.5942 21.4416 36.5942V35.5942Z" fill="#223C50"/>
</svg>
