<svg width="62" height="53" viewBox="0 0 62 53" fill="none" xmlns="http://www.w3.org/2000/svg">
<path opacity="0.3" fill-rule="evenodd" clip-rule="evenodd" d="M36.5157 0.0168014C43.4348 -0.238039 50.1732 2.41135 54.7326 7.60973C59.5658 13.1201 62.3882 20.4842 60.7221 27.6153C59.0639 34.7128 53.1814 39.8398 46.5093 42.8066C40.1038 45.6549 32.8608 45.7995 26.5124 42.8268C20.0817 39.8156 14.8455 34.3033 13.492 27.346C12.1838 20.6212 15.4929 14.1363 19.9108 8.89227C24.1614 3.84675 29.9138 0.259961 36.5157 0.0168014Z" fill="#8CCAEC"/>
<path fill-rule="evenodd" clip-rule="evenodd" d="M45.7388 17.2964C47.7344 20.8385 48.7969 24.8412 48.7969 28.9995C48.7969 31.2386 48.4878 33.4511 47.8779 35.5839C48.4806 37.0795 48.7969 38.6889 48.7969 40.3433C48.7969 47.3219 43.1193 52.9995 36.1406 52.9995C34.4862 52.9995 32.8769 52.6832 31.3812 52.0807C29.4582 52.6304 27.4702 52.9349 25.4563 52.9896C25.4032 52.9956 25.3494 52.9995 25.2947 52.9995H24.7969C18.4113 52.9995 12.3912 50.4962 7.84575 45.9507C6.44241 44.5474 5.23444 43.0031 4.23394 41.3514C4.05366 41.1762 3.92128 40.9531 3.85509 40.7027C1.85934 37.1606 0.796875 33.1578 0.796875 28.9995C0.796875 24.8412 1.85934 20.8384 3.85509 17.2963C3.92128 17.046 4.05366 16.8229 4.23394 16.6478C5.23434 14.996 6.44241 13.4517 7.84575 12.0484C12.3912 7.50282 18.4113 4.99951 24.7969 4.99951C31.1825 4.99951 37.2025 7.50282 41.748 12.0483C43.1513 13.4516 44.3593 14.9958 45.3598 16.6476C45.5402 16.8228 45.6727 17.0459 45.7388 17.2964ZM45.9366 27.5933C45.7346 24.527 44.8778 21.637 43.5044 19.062H38.9702C39.7564 21.7293 40.2207 24.6131 40.3321 27.5933H45.9366ZM45.7598 32.0855C45.8412 31.5293 45.9002 30.969 45.9373 30.4058H44.043C44.4066 30.7013 44.7571 31.0179 45.0919 31.3566C45.3248 31.5923 45.5474 31.8355 45.7598 32.0855ZM37.9885 16.2495H41.7074C39.7805 13.7002 37.2921 11.5978 34.4269 10.1297C34.9699 10.7923 35.4887 11.5141 35.9788 12.2956C36.744 13.5158 37.4152 14.8415 37.9885 16.2495ZM31.8171 27.5933H37.5177C37.3966 24.5802 36.8871 21.6873 36.0274 19.062H31.2649C31.5836 21.7188 31.772 24.6048 31.8171 27.5933ZM34.9248 16.2495C34.5245 15.3858 34.0812 14.5634 33.5961 13.7899C32.2358 11.621 30.6518 10.0004 28.9463 8.99767C29.3845 10.0335 29.7826 11.2695 30.139 12.7035C30.4123 13.8026 30.6547 14.9904 30.8646 16.2495H34.9248ZM23.8017 8.90692C23.1997 9.92007 22.6236 11.47 22.1355 13.3893C21.908 14.2839 21.7025 15.2409 21.5198 16.2495H28.0117C27.8331 15.2368 27.6322 14.2774 27.4096 13.382C26.932 11.4607 26.3662 9.91079 25.7734 8.90007C25.2487 8.00561 24.864 7.81201 24.7969 7.81201C24.7285 7.81201 24.3365 8.00682 23.8017 8.90692ZM29.0043 27.5933C28.9578 24.5866 28.7627 21.6962 28.4327 19.062H21.0863C20.7457 21.7012 20.5441 24.5918 20.496 27.5933H29.0043ZM19.4096 12.6962C19.7711 11.2748 20.1725 10.0482 20.6124 9.01839C18.9202 10.0226 17.3485 11.6359 15.9976 13.7899C15.5125 14.5634 15.0692 15.3858 14.6689 16.2495H18.6644C18.8801 14.9896 19.129 13.7995 19.4096 12.6962ZM12.076 27.5933H17.6833C17.7299 24.6099 17.9242 21.7237 18.2529 19.062H13.5664C12.7068 21.6873 12.1972 24.5802 12.076 27.5933ZM13.5664 38.937H18.2529C17.9242 36.2754 17.7299 33.3892 17.6833 30.4058H12.076C12.1972 33.4188 12.7068 36.3117 13.5664 38.937ZM13.6149 12.2956C14.1051 11.5141 14.6239 10.7923 15.1669 10.1297C12.3017 11.5978 9.81328 13.7002 7.88644 16.2495H11.6052C12.1785 14.8415 12.8497 13.5158 13.6149 12.2956ZM10.6236 19.062H6.08934C4.71591 21.637 3.85913 24.527 3.65719 27.5933H9.26175C9.37313 24.6131 9.83737 21.7293 10.6236 19.062ZM3.65719 30.4058C3.85913 33.472 4.71591 36.362 6.08934 38.937H10.6235C9.83737 36.2697 9.37303 33.3859 9.26166 30.4058H3.65719ZM11.6052 41.7495H7.88644C9.81328 44.2989 12.3017 46.4012 15.1669 47.8693C14.6239 47.2066 14.1051 46.4849 13.6149 45.7034C12.8497 44.4833 12.1785 43.1575 11.6052 41.7495ZM14.669 41.7496C15.0693 42.6134 15.5126 43.4357 15.9977 44.2092C17.3486 46.3632 18.9202 47.9765 20.6124 48.9807C20.1724 47.9509 19.771 46.7244 19.4096 45.3029C19.1291 44.1996 18.8801 43.0095 18.6645 41.7496H14.669ZM28.2013 30.4058H20.4961C20.5442 33.4073 20.7457 36.2979 21.0863 38.937H23.4695C23.7869 36.088 25.0646 33.4344 27.1483 31.3509C27.4848 31.0143 27.8366 30.6997 28.2013 30.4058ZM23.8016 49.0921C24.3365 49.9922 24.7285 50.187 24.7969 50.187C25.8346 50.187 26.8655 50.1115 27.8828 49.9624C27.6329 49.75 27.3895 49.5275 27.1538 49.2944C25.0675 47.2319 23.7879 44.5927 23.4697 41.7495H21.5197C21.7025 42.7581 21.9079 43.7152 22.1354 44.6097C22.6235 46.529 23.1996 48.0789 23.8016 49.0921ZM26.2031 40.3433C26.2031 45.7711 30.6611 50.187 36.1406 50.187C41.5686 50.187 45.9844 45.7711 45.9844 40.3433C45.9844 34.8638 41.5685 30.4058 36.1406 30.4058C30.7539 30.4058 26.2031 34.9566 26.2031 40.3433ZM37.5469 38.937H41.7656C42.5423 38.937 43.1719 39.5666 43.1719 40.3433C43.1719 41.1199 42.5423 41.7495 41.7656 41.7495H36.1406C35.364 41.7495 34.7344 41.1199 34.7344 40.3433V34.6245C34.7344 33.8479 35.364 33.2183 36.1406 33.2183C36.9173 33.2183 37.5469 33.8479 37.5469 34.6245V38.937Z" fill="#223C50"/>
</svg>
