<?xml version="1.0" encoding="UTF-8"?>
<svg width="29px" height="33px" viewBox="0 0 29 33" version="1.1" xmlns="http://www.w3.org/2000/svg" xmlns:xlink="http://www.w3.org/1999/xlink">
    <!-- Generator: Sketch 63.1 (92452) - https://sketch.com -->
    <title>ux_header_job-guarantee</title>
    <desc>Created with Sketch.</desc>
    <g id="Page-10" stroke="none" stroke-width="1" fill="none" fill-rule="evenodd">
        <g id="pp-header-ux-&gt;-1279" transform="translate(-244.000000, -312.000000)">
            <g id="top" transform="translate(1.000000, 49.000000)">
                <g id="text" transform="translate(132.000000, 129.000000)">
                    <g id="ux_header_job-guarantee" transform="translate(111.000000, 134.000000)">
                        <polygon id="o-2" fill="#223C50" points="1.48628556 5.76923077 1.48628556 12.9230769 1.48628556 19.2820513 5.67983395 26.4358974 14.0669307 32 23.2927372 26.4358974 27.4862856 19.2820513 27.4862856 9.74358974 27.4862856 5.76923077 20.7766081 5.76923077 14.9056404 1 9.03467266 4.17948718"></polygon>
                        <ellipse id="o-1" fill="#5CA2B2" cx="14.9862856" cy="17" rx="7.5" ry="7"></ellipse>
                        <path d="M13.0193917,0.562516057 C13.8638122,-0.187505352 15.1371981,-0.187505352 15.9813587,0.562516057 L15.9813587,0.562516057 L16.0034435,0.582909438 C18.5915272,3.02733988 21.6205281,4.26453536 25.5360406,4.47627359 C27.4140316,4.57798849 28.9067071,6.08306676 28.934508,7.90260524 C28.9404839,8.27572773 28.9503571,8.61108469 28.965167,8.92806256 L28.965167,8.92806256 L28.9662062,8.95374308 C29.0420742,12.8299869 29.1363894,17.654143 27.4678147,22.0377025 C26.5529826,24.4415981 25.1686528,26.5312852 23.3535387,28.2491088 C21.2871769,30.2046028 18.5811343,31.7580209 15.310759,32.8663104 C15.2037125,32.9025652 15.092249,32.9320222 14.9794863,32.9539262 C14.8207353,32.9846421 14.6604253,33 14.5003752,33 C14.3403251,33 14.1802749,32.9846421 14.021264,32.9539262 C13.9085015,32.9320222 13.7978174,32.902817 13.6912906,32.8668139 C10.4170179,31.7605385 7.70811726,30.2078758 5.6399368,28.2521301 C3.8240432,26.53481 2.43971336,24.4456264 1.52566071,22.0422343 C-0.136678338,17.6717669 -0.0421031849,12.8566744 0.0340245464,8.98773192 L0.0340245464,8.98773192 L0.0355834431,8.92806256 C0.0503932614,8.60881878 0.060526323,8.27346175 0.0662424329,7.90285699 C0.0940433012,6.08306676 1.58697862,4.57798849 3.46470982,4.47652535 C7.38022228,4.26453536 10.4092233,3.02733988 12.9973069,0.582909438 L12.9973069,0.582909438 Z M14.6240503,1.98425866 C14.5492217,1.92257514 14.4517886,1.92282689 14.3767001,1.98425866 C12.8998737,3.37604068 11.3134027,4.40879936 9.52712872,5.14144869 C7.73851637,5.87510516 5.79193246,6.29002136 3.57617329,6.40986366 C2.74084662,6.45493042 2.07674245,7.1233785 2.06427101,7.931307 C2.05855496,8.31701787 2.0481621,8.66798464 2.0325728,9.00308991 L2.0325728,9.00308991 L2.03205312,9.02474206 C1.95540578,12.9241487 1.86862531,17.3442147 3.40079365,21.3727791 C5.15277116,25.9794064 8.734153,29.1411283 14.3494188,31.0384635 C14.3691653,31.0450095 14.3904706,31.0505484 14.4122957,31.0548285 C14.4710154,31.0661582 14.5299949,31.0661582 14.5879351,31.0550803 C14.61002,31.0508002 14.6313253,31.0450095 14.6513316,31.0384635 C20.2606216,29.1376035 23.8396649,25.9741193 25.5929416,21.3677438 C27.1295269,17.3306192 27.044825,12.9070284 26.9684375,9.00308991 C26.9528482,8.67025055 26.9424553,8.31928384 26.9364794,7.93155875 C26.9242678,7.1233785 26.2601636,6.45493042 25.424837,6.40986366 C23.208818,6.29002136 21.262234,5.87510516 19.4736217,5.14144869 C17.6876076,4.40879936 16.1011365,3.37604068 14.6240503,1.98425866 Z M14.9833333,8.75510204 C19.7423133,8.75510204 23.6142857,12.380586 23.6142857,16.836611 C23.6142857,21.2928835 19.7423133,24.9183673 14.9833333,24.9183673 C10.224089,24.9183673 6.35238095,21.2928835 6.35238095,16.836611 C6.35238095,12.380586 10.224089,8.75510204 14.9833333,8.75510204 Z M14.9833333,10.6578997 C11.3446728,10.6578997 8.38454545,13.4295864 8.38454545,16.836611 C8.38454545,20.2436356 11.3446728,23.0153223 14.9833333,23.0153223 C18.6217296,23.0153223 21.5818569,20.2436356 21.5818569,16.836611 C21.5818569,13.4295864 18.6217296,10.6578997 14.9833333,10.6578997 Z M16.9650508,13.766132 C17.3489291,13.370473 17.9712618,13.370473 18.3551401,13.766132 C18.7387628,14.1612646 18.7387628,14.8022692 18.3551401,15.197665 L18.3551401,15.197665 L13.7823367,19.9076664 C13.5903976,20.1053643 13.3389087,20.2040816 13.0874199,20.2040816 C12.835931,20.2040816 12.5844422,20.1053643 12.392503,19.9076664 L12.392503,19.9076664 L10.6448599,18.1075887 C10.2612372,17.7124562 10.2612372,17.0714516 10.6448599,16.6760558 C11.0287382,16.2806599 11.6510709,16.2806599 12.0349492,16.6760558 L12.0349492,16.6760558 L13.0874199,17.7601037 Z" id="Combined-Shape" fill="#FFFFFF" fill-rule="nonzero"></path>
                    </g>
                </g>
            </g>
        </g>
    </g>
</svg>