<?xml version="1.0" encoding="UTF-8"?>
<svg width="33px" height="33px" viewBox="0 0 33 33" version="1.1" xmlns="http://www.w3.org/2000/svg" xmlns:xlink="http://www.w3.org/1999/xlink">
    <!-- Generator: Sketch 63.1 (92452) - https://sketch.com -->
    <title>ux_header_expert-mentors</title>
    <desc>Created with Sketch.</desc>
    <g id="Page-10" stroke="none" stroke-width="1" fill="none" fill-rule="evenodd">
        <g id="pp-header-ux-&gt;-1279" transform="translate(-346.000000, -312.000000)">
            <g id="top" transform="translate(1.000000, 49.000000)">
                <g id="text" transform="translate(132.000000, 129.000000)">
                    <g id="ux_header_expert-mentors" transform="translate(213.000000, 134.000000)">
                        <path d="M16.6214207,27.7013807 C16.6214207,27.7013807 16.7387828,28.3890563 16.973507,29.7644074 L17.0137144,30 L14.4322315,31.1333333 L12.2430423,31.1333333 C11.5574666,31.0078742 11.1476907,30.6300964 11.0137144,30 C10.8909029,29.4224116 11.0206023,28.730453 11.4028128,27.9241242 L11.5133126,27.7013807 L14.0137144,28 C15.7521853,27.8009204 16.6214207,27.7013807 16.6214207,27.7013807 Z M14.0268261,23.2102564 C14.8552532,23.2102564 15.5268261,23.8818293 15.5268261,24.7102564 C15.5268261,25.5386835 14.8552532,26.2102564 14.0268261,26.2102564 C13.198399,26.2102564 12.5268261,25.5386835 12.5268261,24.7102564 C12.5268261,23.8818293 13.198399,23.2102564 14.0268261,23.2102564 Z M27.2025018,16.5179487 C28.4115576,16.5179487 29.391691,17.4398712 29.391691,18.5771203 C29.391691,19.5127834 28.7282336,20.3026909 27.8196823,20.5533262 C29.1111991,20.8573159 29.7565558,21.009073 29.7565558,21.009073 C29.7565558,21.009073 29.9735228,21.6213164 30.4074567,22.8458032 L30.4862856,23.0682446 L27.5673666,24.4410256 L25.3781775,24.4410256 L23.918718,22.381854 L24.6484477,21.009073 L26.3528469,20.4754555 C25.5657962,20.1634097 25.0133126,19.4309529 25.0133126,18.5771203 C25.0133126,17.4398712 25.993446,16.5179487 27.2025018,16.5179487 Z M6.77006934,9.82564103 C7.97912515,9.82564103 8.95925853,10.7475636 8.95925853,11.8848126 C8.95925853,12.8204757 8.29580117,13.6103832 7.38724983,13.8610185 C8.67876668,14.1650082 9.3241234,14.3167653 9.3241234,14.3167653 C9.3241234,14.3167653 9.54109036,14.9290087 9.9750243,16.1534955 L10.0538531,16.3759369 L7.13493421,17.7487179 L4.94574502,17.7487179 L3.48628556,15.6895464 L4.21601529,14.3167653 L5.92041442,13.7831478 C5.13336379,13.471102 4.58088015,12.7386452 4.58088015,11.8848126 C4.58088015,10.7475636 5.56101354,9.82564103 6.77006934,9.82564103 Z M19.9052045,3.13333333 C21.1142603,3.13333333 22.0943937,4.05525586 22.0943937,5.19250493 C22.0943937,6.12816805 21.4309363,6.91807551 20.522385,7.16871084 C21.8139018,7.47270047 22.4592585,7.62445759 22.4592585,7.62445759 C22.4592585,7.62445759 22.6762255,8.236701 23.1101594,9.46118782 L23.1889883,9.68362919 L20.2700693,11.0564103 L18.0808802,11.0564103 L16.6214207,8.99723866 L17.3511504,7.62445759 L19.0555496,7.0908401 C18.2684989,6.77879433 17.7160153,6.04633749 17.7160153,5.19250493 C17.7160153,4.05525586 18.6961487,3.13333333 19.9052045,3.13333333 Z" id="o-1" fill="#5CA2B2"></path>
                        <path d="M19.7590128,0.133333333 C23.1673866,0.133333333 25.940831,2.68556669 25.940831,5.82222222 C25.940831,7.79278743 24.8462268,9.53269138 23.1872237,10.5540065 L24.8983795,13.9134907 C25.4566578,13.7387883 26.0513336,13.6444444 26.6681037,13.6444444 C29.8760469,13.6444444 32.4862856,16.1966778 32.4862856,19.3333333 C32.4862856,22.4699889 29.8760469,25.0222222 26.6681037,25.0222222 C24.5779389,25.0222222 22.7415171,23.9387242 21.7155176,22.3160365 L19.4181349,23.8086635 C19.8679771,24.5970725 20.1226492,25.4939074 20.1226492,26.4444141 C20.1226492,29.5810864 17.3492706,32.1333333 13.940831,32.1333333 C10.5323914,32.1333333 7.75901283,29.581147 7.75901283,26.4444747 C7.75901283,24.3802221 8.96016102,22.5690835 10.752986,21.5719352 L9.03015403,18.1905554 C8.30205699,18.4686518 7.5041865,18.6222222 6.66810374,18.6222222 C3.25966414,18.6222222 0.486285559,16.0699889 0.486285559,12.9333333 C0.486285559,9.79667781 3.25966414,7.24444444 6.66810374,7.24444444 C8.77228158,7.24444444 10.6344703,8.21717116 11.7514961,9.69961593 L14.1232672,8.15934513 C13.7725434,7.44599335 13.5771946,6.65469029 13.5771946,5.82222222 C13.5771946,2.68556669 16.3505732,0.133333333 19.7590128,0.133333333 Z M15.5231179,28.4000182 L12.3584162,28.4000182 C12.0278836,28.4000182 11.7589702,28.6837356 11.7589702,29.0322026 L11.7589702,29.0322026 L11.7589702,30.3008735 C13.1166407,31.072401 14.7649574,31.072401 16.1226279,30.3008735 L16.122564,30.3008735 L16.122564,29.0322026 C16.122564,28.6837356 15.8536506,28.4000182 15.5231179,28.4000182 L15.5231179,28.4000182 Z M13.940831,21.7898604 C11.1517126,21.7898604 8.88299773,23.8776823 8.88299773,26.4444141 C8.88299773,27.8630538 9.57604537,29.1353958 10.6669562,29.989792 L10.6681037,29.0315464 C10.6681037,27.9974473 11.4263282,27.1555556 12.3584802,27.1555556 L12.3584802,27.1555556 L15.5231819,27.1555556 C16.4553978,27.1555556 17.2135583,27.9974473 17.2135583,29.0322026 L17.2135583,29.0322026 L17.2147059,29.989792 C18.3056167,29.1353958 18.9986643,27.8630538 18.9986643,26.4444141 C18.9986643,23.8776823 16.7299495,21.7898604 13.940831,21.7898604 Z M13.880225,22.1777778 C15.2840916,22.1777778 16.4256795,23.2940699 16.4256795,24.6666667 C16.4256795,26.0392634 15.2840171,27.1555556 13.880225,27.1555556 C12.4764328,27.1555556 11.3347704,26.0393363 11.3347704,24.6666667 C11.3347704,23.2940699 12.4763583,22.1777778 13.880225,22.1777778 Z M13.880225,23.4221858 C13.1782543,23.4221858 12.6074604,23.9803683 12.6074604,24.6666667 C12.6074604,25.353038 13.1783289,25.9111476 13.880225,25.9111476 C14.582121,25.9111476 15.1529895,25.353038 15.1529895,24.6666667 C15.1529895,23.9802954 14.582121,23.4221858 13.880225,23.4221858 Z M28.614027,21.2889071 L25.4493253,21.2889071 C25.1187927,21.2889071 24.8498793,21.5726245 24.8498793,21.9210915 L24.8498793,21.9210915 L24.8498793,23.1897624 C26.2075498,23.9612899 27.8559304,23.9612899 29.213537,23.1897624 L29.2134731,23.1897624 L29.2134731,21.9210915 C29.2134731,21.5726245 28.9445597,21.2889071 28.614027,21.2889071 L28.614027,21.2889071 Z M14.6436592,9.01313187 L12.2799408,10.5482006 C12.645683,11.2739912 12.8499219,12.0821436 12.8499219,12.9333333 C12.8499219,14.9673553 11.6836851,16.7556211 9.93430539,17.7615319 L11.6632084,21.155651 C12.3683879,20.8975263 13.1369466,20.7555556 13.940831,20.7555556 C15.9370325,20.7555556 17.7154064,21.6309624 18.8463978,22.9864957 L21.2562324,21.422258 C20.9940641,20.7752465 20.8499219,20.0704264 20.8499219,19.3333333 C20.8499219,17.1477593 22.1172166,15.2459275 23.970975,14.2935395 L22.2971294,11.0092112 C21.5223614,11.331573 20.663024,11.5111111 19.7590128,11.5111111 C17.6346066,11.5111111 15.7569062,10.5196303 14.6436592,9.01313187 Z M26.6681037,14.6787438 C24.0430511,14.6787438 21.9077901,16.7665546 21.9077901,19.3332727 C21.9077901,20.8093162 22.6139334,22.1269821 23.7132862,22.9802907 L23.7137144,21.8759908 C23.7137144,20.9107049 24.3743856,20.112897 25.2204859,20.0109926 C24.7665817,19.5640073 24.4862856,18.9468183 24.4862856,18.2666667 C24.4862856,16.8940699 25.6278734,15.7777778 27.0317401,15.7777778 C28.4356068,15.7777778 29.5771946,16.8940699 29.5771946,18.2666667 C29.5771946,18.9522231 29.2924144,19.5738418 28.8324115,20.0243727 C29.6395276,20.1633447 30.259169,20.9411826 30.259169,21.8766471 L30.259169,21.8766471 L30.2596045,22.3852175 C30.9873136,21.5675458 31.4284174,20.4998758 31.4284174,19.3332727 C31.4284174,16.7665546 29.2931564,14.6787438 26.6681037,14.6787438 Z M27.0317401,17.0221858 C26.3297695,17.0221858 25.7589755,17.5803683 25.7589755,18.2666667 C25.7589755,18.953038 26.329844,19.5111476 27.0317401,19.5111476 C27.7336362,19.5111476 28.3045047,18.953038 28.3045047,18.2666667 C28.3045047,17.5802954 27.7336362,17.0221858 27.0317401,17.0221858 Z M8.25039067,14.6000182 L5.08568897,14.6000182 C4.7551563,14.6000182 4.48624295,14.8837356 4.48624295,15.2322026 L4.48624295,15.2322026 L4.48624295,16.5008735 C5.8439134,17.272401 7.49229408,17.272401 8.84990062,16.5008735 L8.8498367,16.5008735 L8.8498367,15.2322026 C8.8498367,14.8837356 8.58092334,14.6000182 8.25039067,14.6000182 L8.25039067,14.6000182 Z M6.66810374,8.27880441 C3.87898529,8.27880441 1.61027046,10.3666152 1.61027046,12.9333333 C1.61027046,14.352399 2.30374178,15.6250784 3.39522923,16.4794756 L3.39537647,15.2315464 C3.39537647,14.3739712 3.91683266,13.6485835 4.62650005,13.4259209 C4.27354243,13.0007524 4.06204313,12.4574505 4.06204313,11.8666667 C4.06204313,10.4940699 5.20363099,9.37777778 6.60749768,9.37777778 C8.0112898,9.37777778 9.15295223,10.4940699 9.15295223,11.8666667 C9.15295223,12.4447454 8.95046509,12.9773626 8.61117695,13.4002754 C9.37065119,13.5826057 9.94083101,14.3348881 9.94083101,15.2322026 L9.94083101,15.2322026 L9.94143185,16.4791205 C11.0326578,15.6247258 11.725937,14.3522024 11.725937,12.9333333 C11.725937,10.3666152 9.45722219,8.27880441 6.66810374,8.27880441 Z M6.60749768,10.6221858 C5.90552705,10.6221858 5.33473312,11.1802954 5.33473312,11.8666667 C5.33473312,12.553038 5.90560162,13.1111476 6.60749768,13.1111476 C7.30939374,13.1111476 7.88026224,12.553038 7.88026224,11.8666667 C7.88026224,11.1802954 7.30939374,10.6221858 6.60749768,10.6221858 Z M21.3412998,7.48890712 L18.1765981,7.48890712 C17.8460654,7.48890712 17.577152,7.77262448 17.577152,8.12109153 L17.577152,8.12109153 L17.577152,9.38976242 C18.9348225,10.1612899 20.5832032,10.1612899 21.9408097,9.38976242 L21.9407458,9.38976242 L21.9407458,8.12109153 C21.9407458,7.77262448 21.6718324,7.48890712 21.3412998,7.48890712 L21.3412998,7.48890712 Z M19.7590128,1.1676933 C16.9698944,1.1676933 14.7011796,3.25550406 14.7011796,5.82222222 C14.7011796,7.24128785 15.3946509,8.51396728 16.4861383,9.36836449 L16.4862856,8.12043528 C16.4862856,7.24347076 17.0315881,6.50473862 17.7658296,6.3004822 C17.4200947,5.87681018 17.2135583,5.3393667 17.2135583,4.75555556 C17.2135583,3.38295882 18.3551461,2.26666667 19.7590128,2.26666667 C21.1628049,2.26666667 22.3044674,3.38303174 22.3044674,4.75562847 C22.3044674,5.33943962 22.097931,5.87686991 21.7525351,6.30175763 C22.4864376,6.50473498 23.0317401,7.24350864 23.0317401,8.12109153 L23.0317401,8.12109153 L23.0323409,9.36800938 C24.1235669,8.51361467 24.8168461,7.24109127 24.8168461,5.82222222 C24.8168461,3.25550406 22.5481313,1.1676933 19.7590128,1.1676933 Z M19.7590128,3.51107465 C19.0570422,3.51107465 18.4862483,4.06925719 18.4862483,4.75555556 C18.4862483,5.44192684 19.0571168,6.00003646 19.7590128,6.00003646 C20.4609089,6.00003646 21.0317028,5.44192684 21.0317774,4.75555556 C21.0317774,4.06918427 20.4609835,3.51107465 19.7590128,3.51107465 Z" id="Combined-Shape" fill="#FFFFFF" fill-rule="nonzero"></path>
                    </g>
                </g>
            </g>
        </g>
    </g>
</svg>