<?xml version="1.0" encoding="UTF-8"?>
<svg width="37px" height="32px" viewBox="0 0 37 32" version="1.1" xmlns="http://www.w3.org/2000/svg" xmlns:xlink="http://www.w3.org/1999/xlink">
    <!-- Generator: Sketch 63.1 (92452) - https://sketch.com -->
    <title>ux_header_learn-online</title>
    <desc>Created with Sketch.</desc>
    <g id="Page-10" stroke="none" stroke-width="1" fill="none" fill-rule="evenodd">
        <g id="pp-header-ux-&gt;-1279" transform="translate(-135.000000, -313.000000)">
            <g id="top" transform="translate(1.000000, 49.000000)">
                <g id="text" transform="translate(132.000000, 129.000000)">
                    <g id="ux_header_learn-online" transform="translate(2.013714, 135.000000)">
                        <polygon id="o-2" fill="#223C50" points="0.986285559 2.19512195 0.986285559 24.1463415 35.9862856 24.1463415 35.225416 0.731707317 2.50802469 0"></polygon>
                        <path d="M12.0632086,11.4 L11.0632086,16.8 L17.9862856,20 L25.6785933,16.8 L24.9093625,11.2 C26.9606445,10.1333333 27.9862856,9.6 27.9862856,9.6 C27.9862856,9.6 24.9862856,8.06666667 18.9862856,5 L8.98628556,9 L12.0632086,11.4 Z" id="o-1" fill="#5CA2B2"></path>
                        <path d="M33.5994,0 C34.923,0 36,1.22815789 36,2.73752632 L36,25.3157895 C36,25.6934737 35.7312,26 35.4,26 L22.0032885,26.0003209 C22.071195,29.0529857 23.1905029,30.6 25.3333333,30.6 C25.7013333,30.6 26,30.9136 26,31.3 C26,31.6864 25.7013333,32 25.3333333,32 L10.6666667,32 C10.2986667,32 10,31.6864 10,31.3 C10,30.9136 10.2986667,30.6 10.6666667,30.6 C12.8094971,30.6 13.928805,29.0529857 13.9967115,26.0003209 L0.6,26 C0.2688,26 0,25.6934737 0,25.3157895 L0,2.73752632 C0,1.22815789 1.077,0 2.4006,0 L33.5994,0 Z M33.7585776,1.04 L2.24142245,1.04 C1.57226327,1.04 1.02857143,1.61619059 1.02857143,2.32534824 L1.02857143,22.88 L34.9714286,22.88 L34.9714286,2.32534824 C34.9714286,1.61619059 34.4277367,1.04 33.7585776,1.04 Z M18.7485,4.05820752 L28.6651667,8.94702851 C28.8693333,9.04786045 29,9.26357967 29,9.50007639 C29,9.7365731 28.8693333,9.95229233 28.6651667,10.0531243 L28,10.381 L28,15.3636364 L27.995,15.435 L28.9023441,17.0671889 C29.0553538,17.3425332 28.9933499,17.7156576 28.7638352,17.8992204 C28.6783298,17.9676066 28.5818236,18 28.4868175,18 C28.3253072,18 28.1667971,17.906419 28.0702909,17.7330541 L27.486,16.682 L26.9022802,17.7330541 C26.805774,17.906419 26.6472639,18 26.4857536,18 C26.3907475,18 26.2942414,17.9676066 26.2087359,17.8992204 C25.9792212,17.7156576 25.9172173,17.3431331 26.0702271,17.0671889 L27.0004587,15.3911203 C27.0001539,15.3820071 27,15.3728445 27,15.3636364 L27,10.874 L25.987,11.373 L26,16.9736271 C26,17.1916264 25.8765385,17.3906443 25.6809615,17.4884276 L18.7578846,20.9396044 C18.6771154,20.9798681 18.5882692,21 18.5,21 C18.4117308,21 18.3228846,20.9798681 18.2421154,20.9396044 L11.3190385,17.4884276 C11.1234615,17.3906443 11,17.1916264 11,16.9736271 L10.987,11.361 L8.33483333,10.0531243 C8.13066667,9.95229233 8,9.7365731 8,9.50007639 C8,9.26357967 8.13066667,9.04786045 8.33483333,8.94702851 L18.2515,4.05820752 C18.409,3.98059749 18.591,3.98059749 18.7485,4.05820752 Z M24.964,11.877 L18.986,14.824 L18.986,19.539 L24.8461538,16.6181559 L24.964,11.877 Z M12.153,11.935 L12.1538462,16.6181559 L17.986,19.525 L17.986,14.81 L12.153,11.935 Z M18.5,5.2865238 L9.95358333,9.50007639 L18.5,13.713629 L26.032,10 L18,10 L18,11.3333333 C18,11.7013333 17.776,12 17.5,12 C17.224,12 17,11.7013333 17,11.3333333 L17,8.66666667 C17,8.29866667 17.224,8 17.5,8 C17.776,8 18,8.29866667 18,8.66666667 L18,9 L26.032,9 L18.5,5.2865238 Z" id="Combined-Shape" fill="#FFFFFF" fill-rule="nonzero"></path>
                    </g>
                </g>
            </g>
        </g>
    </g>
</svg>